<svg width="512" height="433" viewBox="0 0 512 433" fill="none" xmlns="http://www.w3.org/2000/svg">
<path d="M152.1 6.16331C161.9 15.0333 162.7 30.2033 153.8 40.0633L81.84 120.103C77.43 124.903 71.21 127.803 64.63 127.103C58.05 128.203 51.69 125.603 47.03 120.103L7.029 80.1033C-2.343 71.6033 -2.343 56.4033 7.029 47.0333C16.4 37.6633 31.6 37.6633 40.97 47.0333L63.08 69.1033L118.2 7.94331C127 -1.90669 142.2 -2.70669 152.1 6.16331ZM152.1 166.203C161.9 175.003 162.7 190.203 153.8 200.103L81.84 280.103C77.43 284.903 71.21 287.803 64.63 287.103C58.05 288.203 51.69 285.603 47.03 280.103L7.029 240.103C-2.343 231.603 -2.343 216.403 7.029 207.003C16.4 197.703 31.6 197.703 40.97 207.003L63.08 229.103L118.2 167.903C127 158.103 142.2 157.303 152.1 166.203ZM224 64.0033C224 46.3333 238.3 32.0033 256 32.0033H480C497.7 32.0033 512 46.3333 512 64.0033C512 81.7033 497.7 96.0033 480 96.0033H256C238.3 96.0033 224 81.7033 224 64.0033ZM224 224.003C224 206.303 238.3 192.003 256 192.003H480C497.7 192.003 512 206.303 512 224.003C512 241.703 497.7 256.003 480 256.003H256C238.3 256.003 224 241.703 224 224.003ZM160 384.003C160 366.303 174.3 352.003 192 352.003H480C497.7 352.003 512 366.303 512 384.003C512 401.703 497.7 416.003 480 416.003H192C174.3 416.003 160 401.703 160 384.003ZM0 384.003C0 357.503 21.49 336.003 48 336.003C74.51 336.003 96 357.503 96 384.003C96 410.503 74.51 432.003 48 432.003C21.49 432.003 0 410.503 0 384.003Z" fill="white"/>
</svg>
